<?xml version="1.0" encoding="UTF-8" standalone="no"?>
<!-- Created with Inkscape (http://www.inkscape.org/) -->
<svg
   xmlns:dc="http://purl.org/dc/elements/1.1/"
   xmlns:cc="http://creativecommons.org/ns#"
   xmlns:rdf="http://www.w3.org/1999/02/22-rdf-syntax-ns#"
   xmlns:svg="http://www.w3.org/2000/svg"
   xmlns="http://www.w3.org/2000/svg"
   xmlns:sodipodi="http://sodipodi.sourceforge.net/DTD/sodipodi-0.dtd"
   xmlns:inkscape="http://www.inkscape.org/namespaces/inkscape"
   width="29.442665"
   height="44"
   id="svg2"
   sodipodi:version="0.32"
   inkscape:version="0.46"
   version="1.0"
   sodipodi:docname="SegnoTeken.svg"
   inkscape:output_extension="org.inkscape.output.svg.inkscape">
  <defs
     id="defs4">
    <inkscape:perspective
       sodipodi:type="inkscape:persp3d"
       inkscape:vp_x="0 : 526.18109 : 1"
       inkscape:vp_y="0 : 1000 : 0"
       inkscape:vp_z="744.09448 : 526.18109 : 1"
       inkscape:persp3d-origin="372.04724 : 350.78739 : 1"
       id="perspective10" />
  </defs>
  <sodipodi:namedview
     id="base"
     pagecolor="#ffffff"
     bordercolor="#666666"
     borderopacity="1.0"
     gridtolerance="10000"
     guidetolerance="10"
     objecttolerance="10"
     inkscape:pageopacity="0.0"
     inkscape:pageshadow="2"
     inkscape:zoom="11"
     inkscape:cx="14.721333"
     inkscape:cy="22"
     inkscape:document-units="px"
     inkscape:current-layer="layer1"
     showgrid="false"
     inkscape:window-width="758"
     inkscape:window-height="669"
     inkscape:window-x="432"
     inkscape:window-y="161" />
  <metadata
     id="metadata7">
    <rdf:RDF>
      <cc:Work
         rdf:about="">
        <dc:format>image/svg+xml</dc:format>
        <dc:type
           rdf:resource="http://purl.org/dc/dcmitype/StillImage" />
      </cc:Work>
    </rdf:RDF>
  </metadata>
  <g
     inkscape:label="Layer 1"
     inkscape:groupmode="layer"
     id="layer1"
     transform="translate(-92.103246,-578.42429)">
    <path
       style="font-size:55.42959213px;font-style:normal;font-variant:normal;font-weight:normal;font-stretch:normal;text-align:start;line-height:100%;writing-mode:lr-tb;text-anchor:start;fill:#000000;fill-opacity:1;stroke:none;stroke-width:1px;stroke-linecap:butt;stroke-linejoin:miter;stroke-opacity:1;font-family:Emmentaler;-inkscape-font-specification:Emmentaler"
       d="M 100.17311,579.59254 C 99.308197,579.70803 98.488312,579.96208 97.713454,580.35468 C 96.938614,580.74732 96.243445,581.2508 95.627944,581.86512 C 95.269978,582.22081 94.9605,582.57647 94.69951,582.93213 C 94.438544,583.28781 94.21221,583.67119 94.020506,584.08228 C 93.49279,585.08232 93.162526,586.13085 93.029715,587.22787 C 92.896931,588.32491 92.968527,589.45658 93.244502,590.62288 C 93.324195,591.02822 93.428124,591.40929 93.55629,591.7661 C 93.684482,592.12293 93.857697,592.51786 94.075935,592.9509 C 94.402748,593.66108 94.802298,594.33316 95.274586,594.96712 C 95.746897,595.60109 96.32659,596.25931 97.013666,596.94178 C 97.819702,597.7455 98.743516,598.53536 99.78511,599.31136 C 100.82672,600.08737 101.97225,600.84951 103.2217,601.5978 C 103.41917,601.71328 103.57853,601.8149 103.69977,601.90266 C 103.82103,601.99042 103.88338,602.03661 103.88685,602.04123 C 103.81843,602.16392 103.25548,603.14836 102.198,604.99455 C 101.14052,606.84073 99.915892,608.97878 98.524101,611.40871 C 97.132327,613.83862 95.900768,615.99053 94.829421,617.86444 C 93.758098,619.73833 93.174364,620.76434 93.078215,620.94248 L 92.967358,621.10877 L 94.907368,621.10877 L 96.902808,621.10877 L 101.83598,612.46186 C 103.20438,610.04146 104.36146,608.00907 105.30721,606.36468 C 106.25297,604.72029 106.75876,603.85191 106.82458,603.75953 C 106.89386,603.7295 107.26801,603.94198 107.94701,604.39696 C 108.62601,604.85193 109.36045,605.39698 110.15031,606.03211 C 110.62145,606.4178 111.13417,606.8797 111.68846,607.41783 C 112.24275,607.95595 112.67232,608.41786 112.97718,608.80356 C 113.42638,609.36476 113.83055,609.94677 114.18969,610.54956 C 114.54882,611.15234 114.82827,611.73435 115.02805,612.29557 C 115.30981,613.09928 115.49457,613.91686 115.58234,614.7483 C 115.67009,615.57972 115.63314,616.25872 115.47148,616.78531 C 115.26939,617.40194 114.95298,617.91466 114.52226,618.32347 C 114.09153,618.73224 113.59498,618.99552 113.03261,619.11333 C 112.54529,619.19414 112.0372,619.15719 111.50832,619.00247 C 110.97943,618.84771 110.52676,618.58904 110.15031,618.22646 C 109.99672,618.09365 109.83275,617.90196 109.65838,617.65139 C 109.48401,617.40079 109.38931,617.22295 109.37431,617.11789 C 109.37661,617.08785 109.39971,617.05089 109.44359,617.00703 C 109.48747,616.96313 109.53828,616.92618 109.59602,616.89617 C 109.79233,616.80839 109.98171,616.67906 110.16417,616.50817 C 110.34662,616.33725 110.50829,616.15249 110.64917,615.95388 C 111.38475,614.86723 111.65959,613.71477 111.47367,612.4965 C 111.28775,611.27821 110.7173,610.36133 109.76231,609.74585 C 109.49324,609.58071 109.21379,609.46754 108.92394,609.40634 C 108.6341,609.34513 108.28536,609.32897 107.87773,609.35784 C 107.47125,609.35437 107.13405,609.37516 106.86615,609.4202 C 106.59824,609.46523 106.34419,609.5553 106.104,609.69042 C 105.57512,609.9791 105.17788,610.44101 104.91228,611.07614 C 104.64669,611.71125 104.52659,612.4503 104.55199,613.29329 C 104.64091,614.61087 104.98965,615.828 105.59821,616.94467 C 106.20678,618.06132 107.04052,618.98744 108.09944,619.72304 C 109.72766,620.79927 111.44596,621.25194 113.25433,621.08105 C 115.06269,620.91012 116.67012,620.14336 118.07664,618.78075 C 118.40805,618.42507 118.70136,618.0694 118.95657,617.71375 C 119.21176,617.35806 119.43579,616.97468 119.62865,616.5636 C 120.15636,615.56355 120.48663,614.51503 120.61944,613.41801 C 120.75222,612.32097 120.68063,611.1893 120.40465,610.02299 C 120.32496,609.61881 120.22103,609.23543 120.09286,608.87284 C 119.96467,608.51023 119.79146,608.09914 119.57322,607.63955 C 119.24641,606.95592 118.84686,606.30001 118.37457,605.67182 C 117.90226,605.04362 117.32256,604.38772 116.63549,603.7041 C 115.82945,602.90038 114.90564,602.11052 113.86404,601.33451 C 112.82244,600.55851 111.67691,599.79636 110.42745,599.04807 C 110.22998,598.9326 110.07063,598.83098 109.94938,598.74321 C 109.82813,598.65545 109.76577,598.60926 109.76231,598.60464 C 109.83072,598.48195 110.39367,597.49751 111.45116,595.65132 C 112.50863,593.80514 113.73326,591.66709 115.12505,589.23716 C 116.51683,586.80725 117.74839,584.65535 118.81973,582.78143 C 119.89106,580.90755 120.47479,579.88154 120.57094,579.70339 L 120.6818,579.53711 L 118.74179,579.53711 L 116.80178,579.53711 L 111.86861,588.18401 C 110.47249,590.60442 109.30155,592.63681 108.3558,594.28119 C 107.41004,595.92558 106.91811,596.79397 106.88001,596.88635 C 106.78416,596.91637 106.39385,596.7039 105.70907,596.24891 C 105.02429,595.79394 104.28755,595.24889 103.49884,594.61376 C 103.0277,594.22808 102.51499,593.76617 101.96069,593.22804 C 101.40641,592.68993 100.97684,592.22802 100.67197,591.84232 C 100.22277,591.28111 99.818605,590.69911 99.459466,590.09631 C 99.100341,589.49353 98.820887,588.91153 98.621103,588.3503 C 98.339349,587.54775 98.154586,586.72786 98.066815,585.89064 C 97.979061,585.05345 98.016013,584.35828 98.177672,583.80513 C 98.379765,583.21506 98.696171,582.71851 99.126891,582.31548 C 99.557627,581.91248 100.05418,581.65151 100.61654,581.53255 C 101.10386,581.45173 101.61196,581.48868 102.14084,581.6434 C 102.66973,581.79816 103.12239,582.05683 103.49884,582.41941 C 103.65243,582.55223 103.81641,582.74392 103.99078,582.99448 C 104.16515,583.24508 104.25984,583.42292 104.27485,583.52799 C 104.27254,583.55803 104.24945,583.59498 104.20556,583.63884 C 104.16168,583.68274 104.11087,583.7197 104.05313,583.7497 C 103.85682,583.83748 103.66744,583.96682 103.48499,584.1377 C 103.30254,584.30863 103.14087,584.49339 102.99998,584.69199 C 102.2644,585.77864 101.98957,586.9311 102.17548,588.14937 C 102.3614,589.36766 102.93186,590.28455 103.88685,590.90003 C 104.15591,591.06517 104.43536,591.17834 104.72521,591.23953 C 105.01506,591.30074 105.3638,591.31691 105.77143,591.28803 C 106.17791,591.2915 106.5151,591.27072 106.78301,591.22567 C 107.05091,591.18064 107.30496,591.09057 107.54515,590.95546 C 108.07403,590.66793 108.47127,590.20371 108.73687,589.5628 C 109.00247,588.92192 109.12256,588.1667 109.09716,587.29715 C 109.00824,586.00613 108.6595,584.80518 108.05094,583.69427 C 107.44238,582.5834 106.60864,581.65959 105.54971,580.92283 C 105.22869,580.69536 104.85916,580.48519 104.44114,580.29233 C 104.02311,580.0995 103.65359,579.95862 103.33256,579.86968 C 102.82331,579.72997 102.28981,579.63528 101.73205,579.58561 C 101.1743,579.53597 100.65466,579.53828 100.17311,579.59254 L 100.17311,579.59254 z M 114.97262,594.28119 C 114.70124,594.38859 114.48184,594.52023 114.3144,594.67612 C 114.14695,594.83202 113.99684,595.03295 113.86404,595.27891 C 113.81092,595.40709 113.77858,595.52488 113.76704,595.63227 C 113.75549,595.73966 113.75087,595.89902 113.75319,596.11034 C 113.74972,596.34476 113.75664,596.51336 113.77397,596.61613 C 113.79129,596.71891 113.83979,596.84593 113.91947,596.9972 C 114.13194,597.37597 114.42756,597.67159 114.80634,597.88407 C 114.93451,597.93719 115.05229,597.96952 115.15969,597.98107 C 115.26708,597.99262 115.42644,597.99724 115.63777,597.99492 C 115.82252,597.99724 115.96571,597.99262 116.06734,597.98107 C 116.16895,597.96952 116.28443,597.93719 116.41377,597.88407 C 116.63317,597.77552 116.81793,597.64619 116.96806,597.49606 C 117.11817,597.34595 117.24751,597.16118 117.35606,596.94178 C 117.43573,596.78935 117.48423,596.66463 117.50156,596.56763 C 117.51887,596.47063 117.5258,596.3182 117.52235,596.11034 C 117.52465,595.83667 117.49232,595.59417 117.42535,595.38284 C 117.35836,595.17152 117.24289,594.97059 117.07892,594.78005 C 116.81447,594.49945 116.4842,594.31237 116.08813,594.21883 C 115.69203,594.1253 115.3202,594.14609 114.97262,594.28119 L 114.97262,594.28119 z M 97.346239,602.70638 C 97.074879,602.81377 96.855473,602.94541 96.688021,603.10131 C 96.520589,603.2572 96.37047,603.45813 96.237662,603.7041 C 96.184553,603.83227 96.152219,603.95006 96.14066,604.05746 C 96.129123,604.16485 96.124504,604.3242 96.126804,604.53553 C 96.12335,604.76995 96.130278,604.93854 96.147589,605.04132 C 96.164921,605.14409 96.213422,605.27111 96.29309,605.42239 C 96.505579,605.80115 96.801199,606.09677 97.179952,606.30926 C 97.308141,606.36237 97.425927,606.3947 97.53331,606.40626 C 97.640713,606.4178 97.800071,606.42242 98.011386,606.42011 C 98.196157,606.42242 98.339349,606.4178 98.44096,606.40626 C 98.542589,606.3947 98.658065,606.36237 98.78739,606.30926 C 99.006804,606.2007 99.191567,606.07137 99.341679,605.92125 C 99.491806,605.77113 99.62114,605.58636 99.729681,605.36696 C 99.809366,605.21453 99.857866,605.08981 99.87518,604.99282 C 99.892509,604.89581 99.899438,604.74339 99.895968,604.53553 C 99.898284,604.26185 99.86595,604.01935 99.798967,603.80803 C 99.731998,603.5967 99.616521,603.39577 99.452536,603.20524 C 99.188102,602.92463 98.857838,602.73755 98.461745,602.64402 C 98.065668,602.55048 97.693833,602.57127 97.346239,602.70638 L 97.346239,602.70638 z"
       id="text2408" />
  </g>
</svg>
